<svg xmlns="http://www.w3.org/2000/svg" width="512" height="512" viewBox="0 0 512 512"><rect width="512" height="512" fill="#FFF" rx="80"/><g transform="translate(256, 256) scale(3.2)"><circle cx="0" cy="0" r="52" fill="none" stroke="#000" stroke-width="3"/><line x1="0" x2="0" y1="-52" y2="-42" stroke="#000" stroke-linecap="round" stroke-width="2.5"/><line x1="0" x2="0" y1="42" y2="52" stroke="#6B7280" stroke-linecap="round" stroke-width="2"/><line x1="-52" x2="-42" y1="0" y2="0" stroke="#6B7280" stroke-linecap="round" stroke-width="2"/><line x1="42" x2="52" y1="0" y2="0" stroke="#6B7280" stroke-linecap="round" stroke-width="2"/><line x1="-36.8" x2="-29.7" y1="-36.8" y2="-29.7" stroke="#6B7280" stroke-linecap="round" stroke-width="1.5"/><line x1="29.7" x2="36.8" y1="-29.7" y2="-36.8" stroke="#6B7280" stroke-linecap="round" stroke-width="1.5"/><line x1="-36.8" x2="-29.7" y1="36.8" y2="29.7" stroke="#6B7280" stroke-linecap="round" stroke-width="1.5"/><line x1="29.7" x2="36.8" y1="29.7" y2="36.8" stroke="#6B7280" stroke-linecap="round" stroke-width="1.5"/><polygon fill="#22C55E" points="0 -40 -6 -2 0 -8 6 -2"/><polygon fill="#000" points="0 40 -6 2 0 8 6 2"/><polyline fill="none" stroke="#000" stroke-linecap="round" stroke-linejoin="round" stroke-width="3" points="-8 -10 4 0 -8 10"/><circle cx="0" cy="0" r="2.5" fill="#22C55E"/></g><rect width="512" height="512" fill="none" stroke="#E5E7EB" stroke-width="1" rx="80"/></svg>